<svg width="15" height="15" viewBox="0 0 15 15" fill="none" xmlns="http://www.w3.org/2000/svg">
<path d="M14.6638 11.8545L12.3473 9.53776C11.8859 9.07821 11.1218 9.09217 10.6443 9.56982L9.47726 10.7366C9.40353 10.696 9.32721 10.6535 9.24697 10.6085C8.50998 10.2002 7.50128 9.64045 6.43983 8.57823C5.37524 7.51377 4.81502 6.50352 4.40541 5.76605C4.36219 5.68792 4.32078 5.61259 4.27988 5.54106L5.06315 4.75895L5.44824 4.37338C5.92646 3.89504 5.93964 3.13116 5.47931 2.67027L3.1628 0.35324C2.70247 -0.107003 1.93803 -0.0930406 1.45981 0.385302L0.806941 1.04192L0.824782 1.05964C0.605865 1.33897 0.422931 1.66114 0.286798 2.00856C0.161308 2.33927 0.083179 2.65484 0.0474542 2.97107C-0.258426 5.50688 0.900369 7.82443 4.04519 10.9693C8.39229 15.3161 11.8955 14.9877 12.0466 14.9717C12.3758 14.9323 12.6912 14.8537 13.0118 14.7292C13.3562 14.5947 13.6781 14.412 13.9573 14.1935L13.9716 14.2062L14.633 13.5586C15.1102 13.0803 15.1239 12.3162 14.6638 11.8545Z" fill="#47557F"/>
</svg>
