<svg width="20" height="21" viewBox="0 0 20 21" fill="none" xmlns="http://www.w3.org/2000/svg">
<path d="M19.2893 16.2606L15.9975 12.9688C16.596 11.7718 16.995 10.3753 16.995 8.9788C16.995 4.29052 13.2045 0.5 8.51622 0.5C3.82794 0.5 0.0374146 4.29052 0.0374146 8.9788C0.0374146 13.6671 3.82794 17.4576 8.51622 17.4576C9.91273 17.4576 11.3092 17.0586 12.5062 16.4601L15.798 19.7519C16.7955 20.7494 18.2918 20.7494 19.2893 19.7519C20.187 18.7544 20.187 17.2581 19.2893 16.2606ZM8.51622 15.4626C4.92519 15.4626 2.03243 12.5698 2.03243 8.9788C2.03243 5.38778 4.92519 2.49501 8.51622 2.49501C12.1072 2.49501 15 5.38778 15 8.9788C15 12.5698 12.1072 15.4626 8.51622 15.4626Z" fill="#47557F"/>
</svg>
